# xmcd CD database file generated by OrangeCD 6.1
#
# Track frame offsets:
#	150
#	17398
#	34046
#	56991
#	73074
#	84606
#	97861
#	113158
#	131104
#	144904
#	158291
#	169617
#	181281
#	194592
#	204435
#	234499
#
# Disc length: 3349 seconds
#
# Revision: 1
# Processed by: cddbd v1.5.2PL0 Copyright (c) Steve Scherf et al.
# Submitted via: OrangeCD 6.1
#
DISCID=cf0d1310
DTITLE=Willie Nelson - A Willie Nelson Christmas
DYEAR=2004
DGENRE=Christmas
TTITLE0=Away In A Manger
TTITLE1=Deck The Halls
TTITLE2=Lee Greenwood - The Twelve Days of Christmas
TTITLE3=It Came Upon A Midnight Clear
TTITLE4=Donna Fargo - Jingle Bells
TTITLE5=Joy To The World
TTITLE6=Tom T. Hall - O Christmas Tree
TTITLE7=The First Noel
TTITLE8=Lee Greenwood - What Child Is This
TTITLE9=O Little Town of Bethlehem
TTITLE10=Melba Montgomery - Hark! The Herald Angels Sing
TTITLE11=O Come All Ye Faithful
TTITLE12=Roy Clark - God Rest Ye Merry Gentlemen
TTITLE13=We Wish You A Merry Christmas
TTITLE14=Silent Night
TTITLE15=Pretty Paper
EXTD=
EXTT0=
EXTT1=
EXTT2=
EXTT3=
EXTT4=
EXTT5=
EXTT6=
EXTT7=
EXTT8=
EXTT9=
EXTT10=
EXTT11=
EXTT12=
EXTT13=
EXTT14=
EXTT15=
PLAYORDER=
